<svg width="19" height="20" viewBox="0 0 19 20" fill="none" xmlns="http://www.w3.org/2000/svg">
<path fill-rule="evenodd" clip-rule="evenodd" d="M2.81613 0.471191H2.74453C2.4166 0.471191 2.13449 0.471191 1.88533 0.529903C1.4996 0.622074 1.14691 0.819234 0.866358 1.09954C0.585801 1.37984 0.388323 1.73235 0.295805 2.11799C0.238525 2.36716 0.238525 2.64783 0.238525 2.97719V6.55719C0.238525 6.88512 0.238525 7.16722 0.297237 7.41639C0.389408 7.80212 0.586568 8.1548 0.866872 8.43536C1.14718 8.71592 1.49968 8.91339 1.88533 9.00591C2.13449 9.06319 2.41517 9.06319 2.74453 9.06319H6.32453C6.65245 9.06319 6.93456 9.06319 7.18373 9.00448C7.56945 8.91231 7.92214 8.71515 8.20269 8.43485C8.48325 8.15454 8.68073 7.80204 8.77325 7.41639C8.83053 7.16722 8.83053 6.88655 8.83053 6.55719V2.97719C8.83053 2.64926 8.83053 2.36716 8.77181 2.11799C8.67964 1.73226 8.48248 1.37958 8.20218 1.09902C7.92188 0.818467 7.56937 0.620989 7.18373 0.528471C6.93456 0.471191 6.65389 0.471191 6.32453 0.471191H2.81613ZM12.8401 0.471191H12.7685C12.4406 0.471191 12.1585 0.471191 11.9093 0.529903C11.5236 0.622074 11.1709 0.819234 10.8904 1.09954C10.6098 1.37984 10.4123 1.73235 10.3198 2.11799C10.2625 2.36716 10.2625 2.64783 10.2625 2.97719V6.55719C10.2625 6.88512 10.2625 7.16722 10.3212 7.41639C10.4134 7.80212 10.6106 8.1548 10.8909 8.43536C11.1712 8.71592 11.5237 8.91339 11.9093 9.00591C12.1585 9.06319 12.4392 9.06319 12.7685 9.06319H16.3485C16.6765 9.06319 16.9586 9.06319 17.2077 9.00448C17.5935 8.91231 17.9461 8.71515 18.2267 8.43485C18.5072 8.15454 18.7047 7.80204 18.7972 7.41639C18.8545 7.16722 18.8545 6.88655 18.8545 6.55719V2.97719C18.8545 2.64926 18.8545 2.36716 18.7958 2.11799C18.7036 1.73226 18.5065 1.37958 18.2262 1.09902C17.9459 0.818467 17.5934 0.620989 17.2077 0.528471C16.9586 0.471191 16.6779 0.471191 16.3485 0.471191H12.8401ZM12.243 1.92324C12.3046 1.90892 12.4005 1.90319 12.8401 1.90319H16.2769C16.718 1.90319 16.8125 1.90749 16.8741 1.92324C17.0027 1.954 17.1203 2.01979 17.2138 2.11332C17.3074 2.20684 17.3731 2.32444 17.4039 2.45308C17.4182 2.51322 17.4225 2.60774 17.4225 3.04879V6.48559C17.4225 6.92665 17.4168 7.02116 17.4025 7.08274C17.3717 7.21137 17.3059 7.32897 17.2124 7.4225C17.1189 7.51602 17.0013 7.58181 16.8726 7.61258C16.8125 7.6269 16.718 7.63119 16.2769 7.63119H12.8401C12.3991 7.63119 12.3046 7.6269 12.243 7.61114C12.1143 7.58038 11.9967 7.51459 11.9032 7.42107C11.8097 7.32754 11.7439 7.20994 11.7131 7.0813C11.7003 7.02259 11.6945 6.92808 11.6945 6.48559V3.04879C11.6945 2.60774 11.6988 2.51322 11.7146 2.45165C11.7453 2.32301 11.8111 2.20541 11.9047 2.11188C11.9982 2.01836 12.1158 1.95257 12.2444 1.92181L12.243 1.92324ZM2.74453 10.4952H6.32453C6.65245 10.4952 6.93456 10.4952 7.18373 10.5539C7.56945 10.6461 7.92214 10.8432 8.20269 11.1235C8.48325 11.4038 8.68073 11.7563 8.77325 12.142C8.83053 12.3912 8.83053 12.6718 8.83053 13.0012V16.5812C8.83053 16.9091 8.83053 17.1912 8.77181 17.4404C8.67964 17.8261 8.48248 18.1788 8.20218 18.4594C7.92188 18.7399 7.56937 18.9374 7.18373 19.0299C6.93456 19.0872 6.65389 19.0872 6.32453 19.0872H2.74453C2.4166 19.0872 2.13449 19.0872 1.88533 19.0285C1.4996 18.9363 1.14691 18.7391 0.866358 18.4588C0.585801 18.1785 0.388323 17.826 0.295805 17.4404C0.238525 17.1912 0.238525 16.9106 0.238525 16.5812V13.0012C0.238525 12.6733 0.238525 12.3912 0.297237 12.142C0.389408 11.7563 0.586568 11.4036 0.866872 11.123C1.14718 10.8425 1.49968 10.645 1.88533 10.5525C2.13449 10.4952 2.41517 10.4952 2.74453 10.4952ZM12.8401 10.4952H12.7685C12.4406 10.4952 12.1585 10.4952 11.9093 10.5539C11.5236 10.6461 11.1709 10.8432 10.8904 11.1235C10.6098 11.4038 10.4123 11.7563 10.3198 12.142C10.2625 12.3912 10.2625 12.6718 10.2625 13.0012V16.5812C10.2625 16.9091 10.2625 17.1912 10.3212 17.4404C10.4134 17.8261 10.6106 18.1788 10.8909 18.4594C11.1712 18.7399 11.5237 18.9374 11.9093 19.0299C12.1585 19.0886 12.4406 19.0886 12.7685 19.0886H16.3485C16.6765 19.0886 16.9586 19.0886 17.2077 19.0299C17.5932 18.9375 17.9456 18.7402 18.2259 18.46C18.5061 18.1797 18.7034 17.8273 18.7958 17.4418C18.8545 17.1927 18.8545 16.9106 18.8545 16.5826V13.0012C18.8545 12.6733 18.8545 12.3912 18.7958 12.142C18.7036 11.7563 18.5065 11.4036 18.2262 11.123C17.9459 10.8425 17.5934 10.645 17.2077 10.5525C16.9586 10.4952 16.6779 10.4952 16.3485 10.4952H12.8401Z" fill="#96A1AF"/>
</svg>
