<svg width="6" height="15" viewBox="0 0 6 15" fill="none" xmlns="http://www.w3.org/2000/svg">
<path d="M5.14856 0.705624C5.34715 0.705192 5.53961 0.782417 5.69252 0.923897C5.77859 1.00357 5.84973 1.10141 5.90188 1.21183C5.95402 1.32224 5.98615 1.44306 5.99641 1.56735C6.00668 1.69165 5.99488 1.81699 5.96169 1.93619C5.9285 2.05539 5.87458 2.16611 5.80302 2.262L1.99525 7.3487L5.66702 12.4449C5.73763 12.542 5.79035 12.6537 5.82216 12.7736C5.85398 12.8935 5.86426 13.0192 5.85241 13.1435C5.84056 13.2679 5.80682 13.3884 5.75313 13.4981C5.69943 13.6079 5.62684 13.7047 5.53953 13.783C5.45159 13.8694 5.34861 13.9346 5.23704 13.9744C5.12547 14.0143 5.00773 14.0279 4.89121 14.0146C4.77469 14.0012 4.6619 13.9611 4.55992 13.8967C4.45794 13.8324 4.36898 13.7452 4.29861 13.6407L0.193354 7.94658C0.0683422 7.77677 1.39578e-06 7.56377 1.41084e-06 7.34396C1.42589e-06 7.12414 0.0683422 6.91115 0.193354 6.74134L4.4431 1.04727C4.52836 0.932422 4.63668 0.841637 4.75925 0.782277C4.88182 0.722917 5.01519 0.696656 5.14856 0.705624Z" fill="#0E0E0E"/>
</svg>
