<svg width="8" height="16" viewBox="0 0 8 16" fill="none" xmlns="http://www.w3.org/2000/svg">
<path d="M1.79341 15.0124C1.56326 15.0129 1.34021 14.9289 1.16299 14.7752C1.06324 14.6886 0.980795 14.5823 0.920361 14.4623C0.859927 14.3423 0.822696 14.211 0.810801 14.076C0.798906 13.9409 0.81258 13.8047 0.85104 13.6752C0.889501 13.5456 0.951991 13.4253 1.03493 13.3211L5.44791 7.79349L1.19254 2.25556C1.11072 2.15007 1.04961 2.02869 1.01274 1.8984C0.97587 1.76811 0.963957 1.63148 0.977688 1.49635C0.991418 1.36123 1.03052 1.23028 1.09275 1.11102C1.15498 0.99177 1.23911 0.886568 1.3403 0.801465C1.44221 0.707582 1.56157 0.636767 1.69087 0.593465C1.82016 0.550163 1.95662 0.535308 2.09166 0.549834C2.2267 0.564359 2.35742 0.607951 2.47561 0.677873C2.59379 0.747795 2.6969 0.842538 2.77845 0.956156L7.5362 7.14378C7.68108 7.32831 7.76028 7.55977 7.76028 7.79864C7.76028 8.03751 7.68108 8.26897 7.5362 8.4535L2.611 14.6411C2.51218 14.7659 2.38665 14.8646 2.2446 14.9291C2.10255 14.9936 1.94797 15.0221 1.79341 15.0124Z" fill="#0E0E0E"/>
</svg>
