<svg width="20" height="20" viewBox="0 0 20 20" fill="none" xmlns="http://www.w3.org/2000/svg">
<path d="M12.668 17.1113L12.668 9.11127C12.668 8.12943 11.872 7.3335 10.8902 7.3335L2.89019 7.3335C1.90835 7.3335 1.11241 8.12943 1.11241 9.11127L1.11241 17.1113C1.11241 18.0931 1.90835 18.8891 2.89019 18.8891H10.8902C11.872 18.8891 12.668 18.0931 12.668 17.1113Z" stroke="#0E0E0E" stroke-width="2" stroke-linecap="round" stroke-linejoin="round"/>
<path d="M7.33507 3.77799V2.88911C7.33507 2.41761 7.52237 1.96543 7.85577 1.63203C8.18917 1.29863 8.64135 1.11133 9.11285 1.11133L17.1128 1.11133C17.5843 1.11133 18.0365 1.29863 18.3699 1.63203C18.7033 1.96543 18.8906 2.41761 18.8906 2.88911L18.8906 10.8891C18.8906 11.3606 18.7033 11.8128 18.3699 12.1462C18.0365 12.4796 17.5843 12.6669 17.1128 12.6669H16.224" stroke="#0E0E0E" stroke-width="2" stroke-linecap="round" stroke-linejoin="round"/>
</svg>
