<svg width="15" height="19" viewBox="0 0 15 19" fill="none" xmlns="http://www.w3.org/2000/svg">
<path d="M7.54672 0.106445C5.0792 0.106445 3.07172 2.11393 3.07172 4.58145V6.37145H2.17672C1.18953 6.37145 0.386719 7.17426 0.386719 8.16145V16.2164C0.386719 17.2036 1.18953 18.0064 2.17672 18.0064H12.9167C13.9039 18.0064 14.7067 17.2036 14.7067 16.2164V8.16145C14.7067 7.17426 13.9039 6.37145 12.9167 6.37145H12.0217V4.58145C12.0217 2.11393 10.0142 0.106445 7.54672 0.106445ZM4.86172 4.58145C4.86172 3.10112 6.06639 1.89645 7.54672 1.89645C9.02705 1.89645 10.2317 3.10112 10.2317 4.58145V6.37145H4.86172V4.58145ZM12.9185 16.2164H8.44172V14.1776C8.97424 13.8671 9.33672 13.2961 9.33672 12.6364C9.33672 11.6493 8.5339 10.8464 7.54672 10.8464C6.55953 10.8464 5.75672 11.6493 5.75672 12.6364C5.75672 13.2952 6.11919 13.8671 6.65172 14.1776V16.2164H2.17672V8.16145H12.9167L12.9185 16.2164Z" fill="#96A1AF"/>
</svg>
