<svg width="18" height="19" viewBox="0 0 18 19" fill="none" xmlns="http://www.w3.org/2000/svg">
<path fill-rule="evenodd" clip-rule="evenodd" d="M0.491699 1.764C0.491699 0.899434 1.19338 0.197754 2.05795 0.197754H6.98045C7.15848 0.197754 7.32921 0.268475 7.45509 0.394358C7.58098 0.520242 7.6517 0.690977 7.6517 0.869004C7.6517 1.04703 7.58098 1.21777 7.45509 1.34365C7.32921 1.46953 7.15848 1.54025 6.98045 1.54025H2.05795C1.99861 1.54025 1.9417 1.56383 1.89973 1.60579C1.85777 1.64775 1.8342 1.70466 1.8342 1.764V17.4265C1.8342 17.55 1.93444 17.6503 2.05795 17.6503H6.98045C7.15848 17.6503 7.32921 17.721 7.45509 17.8469C7.58098 17.9727 7.6517 18.1435 7.6517 18.3215C7.6517 18.4995 7.58098 18.6703 7.45509 18.7961C7.32921 18.922 7.15848 18.9928 6.98045 18.9928H2.05795C1.64255 18.9928 1.24417 18.8277 0.950443 18.534C0.656714 18.2403 0.491699 17.8419 0.491699 17.4265V1.764ZM14.8171 10.2665L11.8636 13.3847C11.7459 13.5147 11.6838 13.6855 11.6905 13.8607C11.6972 14.0359 11.7721 14.2015 11.8993 14.3221C12.0265 14.4428 12.1958 14.5089 12.3711 14.5063C12.5464 14.5037 12.7137 14.4327 12.8373 14.3083L16.8648 10.0571C16.983 9.93237 17.0489 9.76708 17.0489 9.59525C17.0489 9.42342 16.983 9.25813 16.8648 9.13343L12.8373 4.88218C12.7137 4.75785 12.5464 4.6868 12.3711 4.68422C12.1958 4.68164 12.0265 4.74774 11.8993 4.86839C11.7721 4.98903 11.6972 5.15465 11.6905 5.32982C11.6838 5.505 11.7459 5.67584 11.8636 5.80582L14.8171 8.924H7.42795C7.24992 8.924 7.07919 8.99472 6.9533 9.12061C6.82742 9.24649 6.7567 9.41723 6.7567 9.59525C6.7567 9.77328 6.82742 9.94401 6.9533 10.0699C7.07919 10.1958 7.24992 10.2665 7.42795 10.2665H14.8171Z" fill="#EE2727"/>
</svg>
